<?xml version="1.0" encoding="UTF-8" standalone="no" ?>
<!DOCTYPE svg PUBLIC "-//W3C//DTD SVG 1.1//EN" "http://www.w3.org/Graphics/SVG/1.1/DTD/svg11.dtd">
<svg xmlns="http://www.w3.org/2000/svg" xmlns:xlink="http://www.w3.org/1999/xlink" version="1.1" width="484.563" height="354.65" xml:space="preserve">
<desc>Created with Fabric.js 1.6.0-rc.1</desc>
<defs></defs>
<g style="stroke: none; stroke-width: 1; stroke-dasharray: none; stroke-linecap: butt; stroke-linejoin: miter; stroke-miterlimit: 10; fill: none; fill-rule: nonzero; opacity: 1;" transform="translate(10 10) scale(0.75 0.75)" >
  <path d="M 433.5 67 c -25.3 -25.3 -59 -39.3 -94.8 -39.3 s -69.6 14 -94.9 39.4 l -7.3 7.3 l -7.5 -7.5 c -25.4 -25.4 -59.1 -39.4 -95 -39.4 c -35.8 0 -69.4 13.9 -94.7 39.3 C 13.9 92.2 0 125.9 0 161.7 s 14 69.5 39.4 94.8 l 182.7 182.7 c 3.8 3.8 9 6 14.5 6 c 5.4 0 10.6 -2.2 14.5 -6 l 182.2 -182.4 c 25.4 -25.4 39.3 -59.1 39.4 -94.9 S 458.8 92.4 433.5 67 z M 132.5 117.2 c -23.9 0 -43.4 19.5 -43.4 43.4 c 0 11 -8.9 19.9 -19.9 19.9 s -19.9 -8.9 -19.9 -19.9 c 0 -45.8 37.3 -83.1 83.1 -83.1 c 11 0 19.9 8.9 19.9 19.9 C 152.4 108.4 143.5 117.2 132.5 117.2 z" style="stroke: none; stroke-width: 1; stroke-dasharray: none; stroke-linecap: butt; stroke-linejoin: miter; stroke-miterlimit: 10; fill: #d63737; fill-rule: nonzero; opacity: 1;" transform=" matrix(1 0 0 1 0 0) " stroke-linecap="round" />
</g>
<g style="stroke: none; stroke-width: 1; stroke-dasharray: none; stroke-linecap: butt; stroke-linejoin: miter; stroke-miterlimit: 10; fill: none; fill-rule: nonzero; opacity: 1;" transform="translate(213.51 79.15999999999998) rotate(1.83) scale(5.59 5.59)" >
  <path d="M 20.687 38.332 c -2.072 2.072 -5.434 2.072 -7.505 0 L 1.554 26.704 c -2.072 -2.071 -2.072 -5.433 0 -7.504 c 2.071 -2.072 5.433 -2.072 7.505 0 l 6.928 6.927 c 0.523 0.522 1.372 0.522 1.896 0 L 36.642 7.368 c 2.071 -2.072 5.433 -2.072 7.505 0 c 0.995 0.995 1.554 2.345 1.554 3.752 c 0 1.407 -0.559 2.757 -1.554 3.752 L 20.687 38.332 z" style="stroke: none; stroke-width: 1; stroke-dasharray: none; stroke-linecap: butt; stroke-linejoin: miter; stroke-miterlimit: 10; fill: #04aa66; fill-rule: nonzero; opacity: 1;" transform=" matrix(1 0 0 1 0 0) " stroke-linecap="round" />
</g>
</svg>